<svg width="128" height="128" viewBox="0 0 128 128" fill="none" xmlns="http://www.w3.org/2000/svg">
<g clip-path="url(#clip0_1_19354)">
<path fill-rule="evenodd" clip-rule="evenodd" d="M154.85 128H-28V0H154.85V128Z" fill="white" style="fill:white;fill-opacity:1;"/>
<path fill-rule="evenodd" clip-rule="evenodd" d="M154.85 28.8H-28V12H154.85V28.8ZM154.85 116.425H-28V99.625H154.85V116.425ZM34.1 47.675L61.625 95.575L89.75 47.9L34.1 47.7V47.675Z" fill="#0038B8" style="fill:#0038B8;fill:color(display-p3 0.0000 0.2196 0.7216);fill-opacity:1;"/>
<path fill-rule="evenodd" clip-rule="evenodd" d="M56.4501 79.4502L61.675 88.3252L67.0251 79.5002L56.425 79.4502H56.4501Z" fill="white" style="fill:white;fill-opacity:1;"/>
<path fill-rule="evenodd" clip-rule="evenodd" d="M34 80.15L61.55 32.25L89.65 79.95L34 80.15V80.15Z" fill="#0038B8" style="fill:#0038B8;fill:color(display-p3 0.0000 0.2196 0.7216);fill-opacity:1;"/>
<path fill-rule="evenodd" clip-rule="evenodd" d="M56.45 47.8999L61.6749 39.0249L67.025 47.8749L56.4249 47.8999H56.45ZM45.5 67.7749L40.075 76.7749L50.325 76.7499L45.5 67.7499V67.7749ZM40.1749 51.1499L50.4749 51.2249L45.525 60.2999L40.1749 51.1499V51.1499ZM77.9749 67.8999L83.1999 76.7749L72.775 76.6499L77.9749 67.8999ZM83.0999 51.1499L72.8 51.2249L77.75 60.2999L83.0999 51.1499V51.1499ZM54.525 51.1499L47.4249 63.9999L54.625 76.5749L67.8249 76.8749L75.8249 63.9999L68.425 50.9999L54.525 51.1249V51.1499Z" fill="white" style="fill:white;fill-opacity:1;"/>
</g>
<defs>
<clipPath id="clip0_1_19354">
<rect width="128" height="128" fill="white" style="fill:white;fill-opacity:1;"/>
</clipPath>
</defs>
</svg>
