<svg width="128" height="128" viewBox="0 0 128 128" fill="none" xmlns="http://www.w3.org/2000/svg">
<g clip-path="url(#clip0_1_19504)">
<path d="M-0.375 0.0253906H254.754V127.957H-0.375V0.0253906Z" fill="#006400" style="fill:#006400;fill:color(display-p3 0.0000 0.3922 0.0000);fill-opacity:1;"/>
<path d="M-0.375 18.3008H254.754V109.681H-0.375V18.3008Z" fill="#FFD200" style="fill:#FFD200;fill:color(display-p3 1.0000 0.8235 0.0000);fill-opacity:1;"/>
<path d="M-0.375 36.5771H254.754V91.4051H-0.375V36.5771Z" fill="#D40000" style="fill:#D40000;fill:color(display-p3 0.8314 0.0000 0.0000);fill-opacity:1;"/>
<path d="M-0.375 54.8525H254.754V73.1285H-0.375V54.8525Z" fill="black" style="fill:black;fill-opacity:1;"/>
<path d="M-0.375 0.0253906V127.957L84.668 63.9914L-0.375 0.0253906Z" fill="black" stroke="black" style="fill:black;fill-opacity:1;stroke:black;stroke-opacity:1;" stroke-width="6.08324"/>
<path d="M-0.375 0.0253906V127.957L84.668 63.9914L-0.375 0.0253906Z" fill="white" style="fill:white;fill-opacity:1;"/>
<path d="M31.9717 31.8252L48.8284 83.8204L4.72754 51.6851H59.2462L15.1149 83.8204L31.9717 31.8252Z" fill="#D40000" style="fill:#D40000;fill:color(display-p3 0.8314 0.0000 0.0000);fill-opacity:1;"/>
<path d="M24.7734 77.3024L27.7499 76.7541L33.2473 76.5409L35.2822 76.7236L39.8381 77.4851L40.1722 77.0282V73.7386L40.7189 70.9058L41.6301 68.0425L42.6324 65.758L43.908 63.3822L45.9734 63.9H46.5201L46.5808 63.504L42.2072 59.7574L37.6513 56.2545L31.0605 51.32L30.453 51.1677L29.7544 45.9895L29.2381 44.436L28.5395 43.8268L27.2335 43.4004L25.7757 43.4613L25.1075 43.8268L23.7103 44.1314L22.9814 44.2533L22.4954 44.832L22.4347 45.5631L24.4696 45.624L24.986 45.8372L24.9252 46.0504L23.7711 46.2027L23.2244 46.3855L23.8622 46.8728L24.5304 47.1165L25.3808 47.4211L25.563 48.0303L25.6238 55.889L25.1682 57.1074L25.0163 59.3919L25.6845 62.1333L23.9837 64.0827L23.0118 65.819L22.8295 66.8851L22.3132 67.9512L22.2524 68.6213L22.5865 69.3523L23.8926 73.6776L24.5608 77.2415L24.7734 77.3024Z" fill="#FFCC00" style="fill:#FFCC00;fill:color(display-p3 1.0000 0.8000 0.0000);fill-opacity:1;"/>
<path d="M26.3529 43.2783C25.8062 43.2783 25.5632 43.3392 25.0468 43.6134C24.619 43.859 24.1415 44.0048 23.6497 44.0398C22.8904 44.0398 22.2829 44.5881 22.2829 45.2887V45.7456L23.3764 45.7151C26.5958 45.8065 23.6801 46.1111 23.4371 46.1416C22.6474 46.2939 23.6193 46.9335 24.5609 47.2686C25.5632 47.5732 25.5024 47.3904 25.5024 51.8376C25.5024 55.4623 25.5024 55.9801 25.1987 56.8026C24.8039 58.021 24.8039 59.8486 25.1987 61.067C25.3809 61.5543 25.5024 61.9808 25.5024 62.0721C25.5024 62.1331 25.0165 62.7118 24.4394 63.3819C23.3764 64.6003 22.7385 65.8492 22.7385 66.7325C22.7006 67.0167 22.5966 67.288 22.4348 67.5245C22.04 68.0423 22.04 68.9256 22.4044 69.2607C22.7993 69.6262 24.409 75.901 24.4394 77.0889C24.4394 77.5154 24.5001 77.5154 26.9603 77.028C28.9649 76.632 33.6726 76.5406 36.0721 76.8452C37.1655 76.9975 38.4411 77.2412 38.8967 77.3326C40.3546 77.7286 40.2938 77.7895 40.2938 76.0228C40.305 73.2392 40.8302 70.4818 41.8428 67.89C42.4232 66.4131 43.1242 64.9868 43.9385 63.6256C43.9385 63.6256 44.4852 63.6865 45.1534 63.8693C46.3987 64.1739 46.7632 64.1434 46.7632 63.5647C46.7632 63.2601 45.4572 62.1635 39.0486 57.1681C36.4638 55.0464 33.7992 53.0244 31.0606 51.1065C30.8784 51.1065 30.6961 51.0152 30.6658 50.8933L30.2102 47.9996C29.9976 46.5071 29.6938 45.045 29.5723 44.7404C29.1471 43.8266 28.3271 43.3697 26.9603 43.2783C26.7579 43.2718 26.5553 43.2718 26.3529 43.2783V43.2783ZM26.3832 43.5829H26.9907C28.9953 43.7048 29.3597 44.253 29.9064 47.8473C30.054 48.7982 30.1755 49.753 30.2709 50.7106C30.2709 50.9542 29.9976 51.2588 29.299 51.7157C28.1496 52.5246 27.1261 53.4997 26.2617 54.6094L25.8669 55.1577L25.7758 53.8784V50.2841C25.8669 47.6341 25.7758 47.3904 24.9254 47.0858C24.2268 46.8421 23.3156 46.5985 23.5586 46.4462C23.8623 46.2634 24.166 46.3852 24.895 46.172C25.1987 46.1111 25.1683 46.1416 25.1076 45.8979C25.0468 45.5019 24.6216 45.2887 23.4978 45.3496C22.5867 45.4105 22.4956 45.3801 22.5563 45.1364C22.6778 44.649 23.1637 44.3444 23.9231 44.253C24.3879 44.1991 24.84 44.0651 25.2595 43.8571C25.5985 43.6527 25.9877 43.5472 26.3832 43.5525V43.5829ZM30.9087 51.4416H31.0302C31.5466 51.533 46.4595 63.2296 46.4595 63.5647C46.4595 63.6865 46.338 63.7779 46.1557 63.7779C46.0342 63.7779 42.2377 62.7118 37.7425 61.402C30.5746 59.2698 29.542 58.9652 29.2382 58.5692C29.027 58.3015 28.9095 57.9715 28.904 57.6301C28.8985 57.2888 29.0053 56.9551 29.2079 56.6807C29.3537 56.5033 29.4575 56.295 29.5116 56.0715C29.5116 55.706 28.7523 56.6198 28.6004 57.1376C28.4486 57.7468 28.7523 58.7825 29.2079 59.1175C29.3901 59.2698 30.7569 59.7267 32.2451 60.1836C34.7964 60.9147 34.9787 61.006 35.1001 61.4325C35.4039 62.4377 34.3408 63.6256 32.8222 63.9607C32.2528 64.0974 31.716 64.3458 31.2428 64.6917C29.667 66.0006 27.9066 67.0681 26.0188 67.8595C25.8973 67.9509 25.7454 68.4383 25.6543 68.8952C25.4721 69.9004 25.4113 70.0527 25.1076 70.0527C24.9557 70.0527 24.9254 69.9613 25.0468 69.6262C25.2594 69.017 25.2291 68.286 25.0165 68.286C24.8646 68.286 24.8039 68.4992 24.8039 68.8343C24.8039 69.1389 24.7127 69.5044 24.5913 69.5958C24.4394 69.7785 24.409 69.6567 24.4698 68.8952C24.5305 68.3774 24.5001 67.9814 24.4394 67.9814C24.2875 67.9814 24.0142 68.7429 23.9231 69.413C23.8623 69.809 23.8623 69.809 23.7408 69.3216C23.6497 68.9561 23.6801 68.7124 23.9534 68.2555C24.126 67.9246 24.2294 67.5618 24.2572 67.1894C24.2572 66.7934 24.5609 66.3975 25.9884 64.9658C26.8996 64.0216 28.0233 62.8336 28.4182 62.3158C29.1168 61.4629 29.1471 61.402 29.1168 60.5187C29.1168 60.0313 29.056 59.5744 28.9953 59.5135C28.813 59.3307 28.5701 60.3055 28.6915 60.8233C28.7523 61.3106 28.6915 61.4629 27.6893 62.6509C26.9681 63.4788 26.208 64.2717 25.4113 65.0268C24.2268 66.1233 23.8016 66.7325 23.8016 67.2808C23.8016 67.4636 23.6801 67.89 23.4978 68.286C23.3156 68.682 23.2549 69.0779 23.3156 69.1693C23.3764 69.2607 23.3156 69.2607 23.2245 69.1693C23.0726 69.017 23.0726 68.7733 23.1941 68.2555C23.2637 67.9977 23.2843 67.729 23.2549 67.4636C23.103 67.159 22.8904 67.5245 22.7993 68.286C22.7385 68.7124 22.6474 69.0475 22.5563 68.9866C22.3437 68.8647 22.4044 68.0728 22.6778 67.6463C22.8297 67.4331 22.9815 66.9457 23.0726 66.5498C23.2852 65.4227 23.7712 64.5089 24.8342 63.2905C25.1747 62.9189 25.499 62.5327 25.8062 62.1331L25.5024 61.1279C25.0951 59.7697 25.074 58.3244 25.4417 56.9549C25.8365 55.7974 26.6262 54.6399 27.8715 53.391C29.0864 52.2031 30.2709 51.4721 30.9087 51.4416V51.4416ZM35.4646 61.2497C35.503 61.2469 35.5418 61.2494 35.5786 61.2573C35.6153 61.2652 35.6492 61.2782 35.6779 61.2955C35.7065 61.3128 35.7294 61.3339 35.745 61.3575C35.7606 61.3811 35.7686 61.4067 35.7683 61.4325C35.7497 61.4683 35.7148 61.4994 35.6685 61.5214C35.6223 61.5434 35.5669 61.5552 35.5102 61.5552C35.4534 61.5552 35.3981 61.5434 35.3518 61.5214C35.3055 61.4994 35.2707 61.4683 35.252 61.4325C35.2504 61.3903 35.2707 61.349 35.3095 61.3157C35.3483 61.2824 35.4031 61.2591 35.4646 61.2497V61.2497ZM36.2239 61.3411C36.2623 61.3382 36.3011 61.3408 36.3379 61.3487C36.3746 61.3566 36.4085 61.3696 36.4372 61.3869C36.4659 61.4041 36.4888 61.4253 36.5044 61.4489C36.5199 61.4725 36.5279 61.4981 36.5276 61.5239C36.509 61.5597 36.4741 61.5908 36.4279 61.6128C36.3816 61.6347 36.3262 61.6466 36.2695 61.6466C36.2127 61.6466 36.1574 61.6347 36.1111 61.6128C36.0648 61.5908 36.03 61.5597 36.0113 61.5239C36.0097 61.4817 36.0301 61.4404 36.0688 61.4071C36.1076 61.3738 36.1624 61.3505 36.2239 61.3411V61.3411ZM37.0136 61.4934C37.052 61.4905 37.0908 61.4931 37.1276 61.501C37.1643 61.5089 37.1982 61.5219 37.2268 61.5392C37.2555 61.5564 37.2784 61.5776 37.294 61.6012C37.3096 61.6248 37.3176 61.6504 37.3173 61.6762C37.2987 61.712 37.2638 61.7431 37.2175 61.7651C37.1713 61.787 37.1159 61.7989 37.0592 61.7989C37.0024 61.7989 36.9471 61.787 36.9008 61.7651C36.8545 61.7431 36.8197 61.712 36.801 61.6762C36.7994 61.634 36.8197 61.5927 36.8585 61.5594C36.8973 61.5261 36.9521 61.5028 37.0136 61.4934V61.4934ZM37.7425 61.6457C37.7809 61.6428 37.8197 61.6454 37.8565 61.6533C37.8933 61.6612 37.9271 61.6742 37.9558 61.6915C37.9845 61.7087 38.0074 61.7299 38.023 61.7535C38.0386 61.7771 38.0465 61.8027 38.0463 61.8285C38.0276 61.8643 37.9927 61.8954 37.9465 61.9174C37.9002 61.9393 37.8449 61.9512 37.7881 61.9512C37.7313 61.9512 37.676 61.9393 37.6297 61.9174C37.5835 61.8954 37.5486 61.8643 37.5299 61.8285C37.5284 61.7863 37.5487 61.745 37.5874 61.7117C37.6262 61.6784 37.681 61.6551 37.7425 61.6457ZM35.8291 61.8285C35.8674 61.8256 35.9063 61.8282 35.943 61.8361C35.9798 61.844 36.0136 61.857 36.0423 61.8742C36.071 61.8915 36.0939 61.9126 36.1095 61.9363C36.1251 61.9599 36.133 61.9854 36.1328 62.0112C36.1141 62.0471 36.0793 62.0781 36.033 62.1001C35.9867 62.1221 35.9314 62.1339 35.8746 62.1339C35.8179 62.1339 35.7625 62.1221 35.7163 62.1001C35.67 62.0781 35.6351 62.0471 35.6165 62.0112C35.6149 61.969 35.6352 61.9278 35.674 61.8945C35.7127 61.8611 35.7675 61.8378 35.8291 61.8285ZM36.558 61.9503C36.5964 61.9474 36.6352 61.95 36.672 61.9579C36.7087 61.9658 36.7426 61.9788 36.7713 61.9961C36.8 62.0133 36.8229 62.0345 36.8384 62.0581C36.854 62.0817 36.862 62.1073 36.8617 62.1331C36.8431 62.1689 36.8082 62.2 36.762 62.222C36.7157 62.2439 36.6603 62.2558 36.6036 62.2558C36.5468 62.2558 36.4915 62.2439 36.4452 62.222C36.3989 62.2 36.3641 62.1689 36.3454 62.1331C36.3438 62.0909 36.3642 62.0496 36.4029 62.0163C36.4417 61.983 36.4965 61.9597 36.558 61.9503V61.9503ZM38.1374 62.0112C38.1758 62.0084 38.2146 62.0109 38.2513 62.0188C38.2881 62.0267 38.3219 62.0397 38.3506 62.057C38.3793 62.0743 38.4022 62.0954 38.4178 62.119C38.4334 62.1426 38.4414 62.1682 38.4411 62.194C38.4225 62.2298 38.3876 62.2609 38.3413 62.2829C38.2951 62.3049 38.2397 62.3167 38.1829 62.3167C38.1262 62.3167 38.0708 62.3049 38.0246 62.2829C37.9783 62.2609 37.9434 62.2298 37.9248 62.194C37.9232 62.1518 37.9435 62.1105 37.9823 62.0772C38.021 62.0439 38.0758 62.0206 38.1374 62.0112ZM37.3173 62.0112C37.3557 62.0084 37.3945 62.0109 37.4313 62.0188C37.468 62.0267 37.5019 62.0397 37.5306 62.057C37.5593 62.0743 37.5822 62.0954 37.5978 62.119C37.6134 62.1426 37.6213 62.1682 37.6211 62.194C37.6024 62.2298 37.5675 62.2609 37.5213 62.2829C37.475 62.3049 37.4197 62.3167 37.3629 62.3167C37.3061 62.3167 37.2508 62.3049 37.2045 62.2829C37.1583 62.2609 37.1234 62.2298 37.1047 62.194C37.1032 62.1518 37.1235 62.1105 37.1622 62.0772C37.201 62.0439 37.2558 62.0206 37.3173 62.0112V62.0112ZM38.836 62.194C38.8663 62.194 39.9597 62.4377 41.2658 62.8032L43.6652 63.5038L43.2096 64.3262C42.9551 64.7665 42.712 65.2134 42.4807 65.6664C42.1769 66.2756 42.1162 66.2756 40.6583 65.9406C39.0789 65.575 36.5884 65.24 34.0371 65.0268L31.6073 64.8135L32.5185 64.4785C33.0686 64.2661 33.6061 64.022 34.1282 63.7474C34.7357 63.4124 34.9787 63.3515 35.9202 63.4428C37.287 63.5342 38.1981 63.2601 38.5626 62.7118L38.8663 62.194H38.836ZM36.1632 62.3767C36.2015 62.3739 36.2404 62.3765 36.2771 62.3844C36.3139 62.3923 36.3477 62.4053 36.3764 62.4225C36.4051 62.4398 36.428 62.4609 36.4436 62.4845C36.4592 62.5081 36.4671 62.5337 36.4669 62.5595C36.4482 62.5953 36.4134 62.6264 36.3671 62.6484C36.3208 62.6704 36.2655 62.6822 36.2087 62.6822C36.152 62.6822 36.0966 62.6704 36.0504 62.6484C36.0041 62.6264 35.9692 62.5953 35.9506 62.5595C35.949 62.5173 35.9693 62.4761 36.0081 62.4427C36.0468 62.4094 36.1016 62.3861 36.1632 62.3767V62.3767ZM37.864 62.3767C37.9024 62.3739 37.9412 62.3765 37.978 62.3844C38.0147 62.3923 38.0486 62.4053 38.0773 62.4225C38.106 62.4398 38.1289 62.4609 38.1445 62.4845C38.1601 62.5081 38.168 62.5337 38.1678 62.5595C38.1448 62.5893 38.1099 62.6144 38.0671 62.6318C38.0242 62.6493 37.975 62.6585 37.9248 62.6585C37.8746 62.6585 37.8254 62.6493 37.7825 62.6318C37.7396 62.6144 37.7048 62.5893 37.6818 62.5595C37.6802 62.5173 37.7005 62.4761 37.7393 62.4427C37.7781 62.4094 37.8329 62.3861 37.8944 62.3767H37.864ZM35.4342 62.3767C35.4726 62.3739 35.5114 62.3765 35.5482 62.3844C35.5849 62.3923 35.6188 62.4053 35.6475 62.4225C35.6762 62.4398 35.6991 62.4609 35.7147 62.4845C35.7303 62.5081 35.7382 62.5337 35.738 62.5595C35.7193 62.5953 35.6844 62.6264 35.6382 62.6484C35.5919 62.6704 35.5366 62.6822 35.4798 62.6822C35.423 62.6822 35.3677 62.6704 35.3214 62.6484C35.2752 62.6264 35.2403 62.5953 35.2216 62.5595C35.2296 62.5227 35.2543 62.4883 35.2923 62.4611C35.3303 62.4339 35.3798 62.4151 35.4342 62.4072V62.3767ZM37.044 62.4377C37.1143 62.4318 37.1852 62.4444 37.2418 62.4728C37.2985 62.5012 37.3364 62.5432 37.3477 62.59C37.329 62.6258 37.2942 62.6569 37.2479 62.6789C37.2016 62.7008 37.1463 62.7127 37.0895 62.7127C37.0328 62.7127 36.9774 62.7008 36.9312 62.6789C36.8849 62.6569 36.85 62.6258 36.8314 62.59C36.8394 62.5531 36.864 62.5188 36.902 62.4916C36.94 62.4644 36.9896 62.4455 37.044 62.4377ZM35.0394 62.7727C35.0778 62.7699 35.1166 62.7724 35.1534 62.7803C35.1901 62.7882 35.2239 62.8012 35.2526 62.8185C35.2813 62.8358 35.3042 62.8569 35.3198 62.8805C35.3354 62.9041 35.3434 62.9297 35.3431 62.9555C35.3245 62.9913 35.2896 63.0224 35.2433 63.0444C35.1971 63.0664 35.1417 63.0782 35.085 63.0782C35.0282 63.0782 34.9728 63.0664 34.9266 63.0444C34.8803 63.0224 34.8454 62.9913 34.8268 62.9555C34.8252 62.9133 34.8455 62.872 34.8843 62.8387C34.923 62.8054 34.9778 62.7821 35.0394 62.7727V62.7727ZM35.7987 62.7727C35.8412 62.7691 35.8844 62.7722 35.9248 62.7818C35.9652 62.7914 36.0017 62.8072 36.0312 62.828C36.0608 62.8487 36.0826 62.8738 36.095 62.9013C36.1074 62.9287 36.1099 62.9577 36.1024 62.9859C36.0838 63.0218 36.0489 63.0528 36.0026 63.0748C35.9564 63.0968 35.901 63.1086 35.8443 63.1086C35.7875 63.1086 35.7322 63.0968 35.6859 63.0748C35.6396 63.0528 35.6048 63.0218 35.5861 62.9859C35.5845 62.9437 35.6048 62.9025 35.6436 62.8692C35.6824 62.8359 35.7372 62.8125 35.7987 62.8032V62.7727ZM36.5884 62.8336C36.6587 62.8278 36.7296 62.8404 36.7863 62.8688C36.8429 62.8972 36.8809 62.9392 36.8921 62.9859C36.8735 63.0218 36.8386 63.0528 36.7923 63.0748C36.7461 63.0968 36.6907 63.1086 36.634 63.1086C36.5772 63.1086 36.5218 63.0968 36.4756 63.0748C36.4293 63.0528 36.3944 63.0218 36.3758 62.9859C36.3838 62.9491 36.4085 62.9148 36.4465 62.8876C36.4844 62.8603 36.534 62.8415 36.5884 62.8336ZM37.4388 62.8336C37.4772 62.8308 37.516 62.8334 37.5528 62.8413C37.5895 62.8492 37.6234 62.8622 37.6521 62.8794C37.6808 62.8967 37.7037 62.9178 37.7193 62.9414C37.7348 62.965 37.7428 62.9906 37.7425 63.0164C37.7239 63.0522 37.689 63.0833 37.6428 63.1053C37.5965 63.1273 37.5411 63.1391 37.4844 63.1391C37.4276 63.1391 37.3723 63.1273 37.326 63.1053C37.2797 63.0833 37.2449 63.0522 37.2262 63.0164C37.2246 62.9742 37.245 62.933 37.2837 62.8996C37.3225 62.8663 37.3773 62.843 37.4388 62.8336V62.8336ZM31.2732 65.3009C34.8586 65.3963 38.4274 65.8245 41.934 66.5802C41.9643 66.6107 41.7517 67.3417 41.4176 68.2251L40.8102 70.0527C40.7798 70.205 40.5672 70.205 40.0509 70.144C37.5299 69.7481 30.2405 69.7785 27.4463 70.205C25.8365 70.4486 25.6239 70.4182 25.7454 70.0831L26.0491 69.017L26.2314 68.1946L27.8715 67.3417C28.9647 66.7823 30.0021 66.1193 30.9695 65.3618H31.2428L31.2732 65.3009ZM23.0726 69.6262C23.1637 69.6262 23.346 69.7176 23.5586 69.8699C23.8623 70.0527 24.2268 70.205 24.3786 70.205C25.1683 70.205 25.5935 71.332 26.2617 75.0786L26.5047 76.4188C26.5655 76.7234 26.5047 76.7843 25.8062 76.9366C24.9557 77.1194 24.7431 77.1498 24.7431 77.028C24.7431 76.7234 23.8927 72.855 23.5282 71.4843C23.3468 70.8804 23.1847 70.2709 23.0423 69.6567C23.0469 69.654 23.0521 69.6526 23.0574 69.6526C23.0628 69.6526 23.068 69.654 23.0726 69.6567V69.6262ZM31.7592 70.2354H32.64L32.3362 70.54C31.8199 71.1492 31.5769 71.1797 31.2125 70.7837C31.0845 70.6511 30.9815 70.4963 30.9087 70.3268C30.9087 70.2659 31.3036 70.205 31.7592 70.205V70.2354ZM33.6119 70.2354H35.252L34.8875 70.6009C34.4623 71.0883 34.4319 71.0883 33.9764 70.6009L33.6119 70.205V70.2354ZM36.1024 70.2354H36.4973C36.7099 70.2354 37.1047 70.2354 37.3477 70.2963L37.8033 70.3877L37.3781 70.7837C37.1351 70.9969 36.9225 71.1797 36.8921 71.1492L36.4669 70.6619L36.1024 70.205V70.2354ZM38.6841 70.3268L39.0486 70.4182C39.2612 70.4791 39.7168 70.5096 40.0509 70.54H40.6583L40.2027 70.936C40.0377 71.0904 39.854 71.2234 39.656 71.332C39.6256 71.332 39.3523 71.0883 39.1397 70.8142L38.6841 70.3268V70.3268ZM29.5116 70.3573H29.5723C29.6027 70.4182 29.4812 70.6619 29.2686 70.8751L28.9649 71.3015L28.5093 70.936L28.0537 70.54L28.7827 70.4486L29.5116 70.3573V70.3573ZM30.2102 70.4182L30.6961 70.8446L31.1821 71.3015L30.2709 71.3624L29.3597 71.3929L29.785 70.936L30.2102 70.4182ZM35.6772 70.4182C35.7683 70.4182 35.8291 70.4486 35.9202 70.5096C36.079 70.6595 36.2124 70.8344 36.315 71.0274C36.4365 71.2711 36.4062 71.332 36.0113 71.332L35.252 71.1797L34.8875 71.0883L35.2824 70.6923C35.4646 70.5096 35.5861 70.3877 35.7076 70.3877L35.6772 70.4182ZM33.1563 70.4182C33.3082 70.4182 33.46 70.5096 33.6423 70.8142C33.8549 71.1492 33.8549 71.1492 33.0348 71.1492H32.2148L32.64 70.7532C32.8526 70.54 33.0348 70.4486 33.1563 70.4486V70.4182ZM38.3196 70.4791L38.6841 70.8446C39.1093 71.2406 39.1701 71.4843 38.8663 71.4538L38.0159 71.3624L37.3477 71.3015L37.8337 70.9055L38.3196 70.4791V70.4791ZM27.6285 70.6923C27.6893 70.6923 27.9322 70.8446 28.1145 71.0578L28.4789 71.4538L27.7196 71.5757L26.6566 71.728C26.444 71.7889 26.5047 71.6366 26.9603 71.2406C27.264 70.936 27.5678 70.6923 27.6285 70.6923ZM26.5047 70.6923H26.6262C26.8692 70.7532 26.8692 70.8142 26.444 71.2406L25.9884 71.6975L25.8365 71.3015C25.715 70.9969 25.7454 70.9055 26.0188 70.7837C26.1744 70.7257 26.3387 70.6948 26.5047 70.6923V70.6923ZM40.4761 71.2406C40.5368 71.2406 40.5368 71.3015 40.4761 71.4234C40.4153 71.667 40.142 71.728 40.142 71.4843C40.142 71.4234 40.2331 71.332 40.3546 71.2711H40.4457L40.4761 71.2406ZM33.9764 71.728C36.315 71.728 38.6841 71.7889 39.2612 71.8498C40.2027 71.9716 40.2938 72.0021 40.2938 72.3676C40.2938 72.7941 40.1723 72.8245 38.8967 72.6113C38.5322 72.5199 36.9832 72.3981 35.495 72.2762C32.6065 72.1011 29.708 72.2031 26.8388 72.5808C26.2617 72.6418 26.1099 72.5808 26.1099 72.3981C26.1099 72.0021 29.2079 71.728 33.9764 71.728V71.728ZM30.848 72.6113H32.4881L32.1236 73.0073C31.668 73.4946 31.6377 73.4946 31.2125 73.0073L30.848 72.6113ZM32.9741 72.6113L33.3993 73.0377L33.8245 73.5251L32.9437 73.5556H32.0629L32.5185 73.0682L32.9437 72.6113H32.9741ZM33.6119 72.6113H35.252L34.8875 73.0073C34.4623 73.4946 34.4319 73.4946 33.9764 73.0073L33.6119 72.6113ZM29.7242 72.6113C29.785 72.6113 29.7242 72.7636 29.5116 73.0682C29.299 73.3423 29.0864 73.5556 29.056 73.5556C28.9953 73.5556 28.7827 73.3728 28.6004 73.1596L28.236 72.7636H28.7827C29.0606 72.765 29.3371 72.7239 29.6027 72.6418C29.6428 72.6336 29.6841 72.6336 29.7242 72.6418V72.6113ZM30.3317 72.7636L30.7265 73.1291L31.1821 73.5251L30.3924 73.586L29.5116 73.6469L29.9368 73.19L30.3317 72.7636V72.7636ZM35.6165 72.7636L36.0417 73.251C36.5276 73.7688 36.4973 73.7992 35.4039 73.586L34.8875 73.4946L35.252 73.1291L35.6165 72.7636V72.7636ZM36.2239 72.7636H36.9529C37.7425 72.7636 37.8337 72.8854 37.3781 73.3119C37.0136 73.6165 37.0136 73.6165 36.5884 73.1596L36.2239 72.7636V72.7636ZM26.9299 72.9159C27.2944 72.9159 27.264 72.9464 26.8084 73.4033C26.4744 73.7383 26.444 73.7383 26.3225 73.4946C26.2314 73.19 26.5047 72.9464 26.9299 72.9159ZM38.7145 72.9768C38.836 72.9768 39.0789 72.9768 39.3219 73.0377L40.0205 73.1596L39.6256 73.5251L39.2612 73.8906L38.9271 73.4642L38.6233 72.9768H38.7145V72.9768ZM27.7804 73.1291C27.8715 73.1291 27.9626 73.19 28.1145 73.3423C28.4182 73.6469 28.4182 73.6469 28.1752 73.7688C27.9398 73.8464 27.694 73.8875 27.4463 73.8906H26.9603L27.3552 73.4642C27.5678 73.251 27.6589 73.1596 27.75 73.1291H27.7804ZM38.1374 73.2205C38.2589 73.2205 38.35 73.2814 38.5019 73.5251L38.7752 73.8906H38.1374C37.7122 73.8906 37.5299 73.8297 37.5299 73.7079C37.5907 73.586 37.7425 73.4033 37.9248 73.3119L38.1374 73.2205V73.2205ZM40.0812 73.6165C40.142 73.6165 40.142 73.6774 40.142 73.7688C40.142 74.0734 39.8686 74.2866 39.7471 74.0734C39.7168 73.982 39.7775 73.8297 39.899 73.7383L40.0812 73.6165V73.6165ZM32.2148 73.982C34.8572 73.982 37.7729 74.1648 39.5042 74.4694L39.9901 74.5607V75.901C39.9901 76.9062 39.9294 77.2412 39.7775 77.2412L38.2589 76.9366C34.7468 76.3394 31.1688 76.2369 27.6285 76.632L26.9299 76.7234L26.7477 75.5964C26.6722 75.2151 26.6316 74.8276 26.6262 74.4389C26.6262 74.4389 27.3248 74.2866 28.1448 74.1952C29.1471 74.0429 30.6354 73.982 32.2148 73.982V73.982Z" fill="black" style="fill:black;fill-opacity:1;"/>
<path d="M37.53 66.3672C36.6188 66.3672 35.981 67.0068 35.981 67.9511C35.981 69.4132 37.6211 70.1442 38.593 69.1086C39.5649 68.0729 38.8967 66.3672 37.53 66.3672V66.3672ZM37.53 66.7327C37.6895 66.7327 37.8475 66.7642 37.9949 66.8255C38.1423 66.8867 38.2762 66.9764 38.389 67.0896C38.5018 67.2027 38.5913 67.337 38.6524 67.4848C38.7134 67.6327 38.7449 67.7911 38.7449 67.9511C38.7449 68.8649 37.7426 69.4741 36.9225 69.0781C36.1024 68.6212 36.1632 67.2201 37.044 66.8545C37.1872 66.7865 37.3416 66.7453 37.4996 66.7327H37.53Z" fill="black" style="fill:black;fill-opacity:1;"/>
<path d="M31.425 66.1836C30.5138 66.1836 29.876 66.8233 29.876 67.7675C29.876 69.2296 31.5161 69.9606 32.488 68.925C33.4599 67.8894 32.7917 66.1836 31.425 66.1836V66.1836ZM31.425 66.5491C31.5845 66.5491 31.7425 66.5806 31.8899 66.6419C32.0373 66.7031 32.1712 66.7928 32.284 66.906C32.3969 67.0191 32.4863 67.1534 32.5474 67.3013C32.6084 67.4491 32.6399 67.6075 32.6399 67.7675C32.6399 68.6813 31.6376 69.2905 30.8175 68.8945C29.9975 68.4376 30.0582 67.0365 30.939 66.671C31.0822 66.603 31.2366 66.5617 31.3946 66.5491H31.425Z" fill="black" style="fill:black;fill-opacity:1;"/>
<path d="M26.3527 44.2832C26.2259 44.2909 26.1062 44.348 26.0165 44.4435C25.9269 44.5391 25.8735 44.6663 25.8667 44.801C25.8667 44.9507 25.9227 45.0942 26.0224 45.2001C26.1221 45.3059 26.2573 45.3654 26.3982 45.3654C26.5392 45.3654 26.6744 45.3059 26.7741 45.2001C26.8737 45.0942 26.9297 44.9507 26.9297 44.801C26.9263 44.7258 26.9083 44.6522 26.8769 44.5847C26.8455 44.5173 26.8014 44.4574 26.7473 44.4088C26.6931 44.3602 26.6302 44.324 26.5623 44.3024C26.4944 44.2808 26.423 44.2742 26.3527 44.2832V44.2832ZM26.383 44.4659C26.4797 44.4659 26.5724 44.5012 26.6407 44.5641C26.7091 44.6269 26.7475 44.7121 26.7475 44.801C26.7475 44.8899 26.7091 44.9751 26.6407 45.0379C26.5724 45.1008 26.4797 45.1361 26.383 45.1361C26.2864 45.1361 26.1937 45.1008 26.1253 45.0379C26.057 44.9751 26.0186 44.8899 26.0186 44.801C26.0186 44.757 26.028 44.7134 26.0463 44.6728C26.0646 44.6321 26.0915 44.5952 26.1253 44.5641C26.1592 44.533 26.1993 44.5083 26.2436 44.4914C26.2878 44.4746 26.3352 44.4659 26.383 44.4659Z" fill="black" style="fill:black;fill-opacity:1;"/>
</g>
<defs>
<clipPath id="clip0_1_19504">
<rect width="128" height="128" fill="white" style="fill:white;fill-opacity:1;"/>
</clipPath>
</defs>
</svg>
